{"glyphs":{":":{"x_min":0,"x_max":359,"ha":359,"o":"m 32 81 q 32 122 61 150 q 89 179 130 179 q 172 179 200 151 q 229 123 229 81 q 229 39 201 10 q 172 -18 131 -18 q 90 -18 61 11 q 32 41 32 81 z m 84 381 q 84 421 113 450 q 141 479 182 479 q 224 479 252 451 q 281 422 281 381 q 281 339 252 311 q 223 282 182 282 q 142 282 113 311 q 84 340 84 381 z"},"$":{"x_min":0,"x_max":611,"ha":611,"o":"m 87 235 q 131 186 181 161 q 230 136 282 136 q 328 136 354 155 q 380 173 380 206 q 380 232 361 250 q 343 268 277 294 q 180 333 139 376 q 97 419 97 478 q 97 577 163 640 q 229 703 340 709 l 351 774 l 412 774 l 401 707 q 446 703 489 684 q 532 666 574 631 l 488 506 q 450 541 413 558 q 377 574 337 574 q 296 574 273 558 q 249 542 249 515 q 249 484 333 447 q 368 432 388 422 q 479 377 511 336 q 543 294 543 228 q 543 134 471 70 q 399 5 284 -3 l 264 -119 l 203 -119 l 223 -3 q 159 1 103 30 q 47 59 0 111 z"},"?":{"x_min":0,"x_max":564,"ha":564,"o":"m 119 78 q 119 117 148 146 q 176 175 216 175 q 257 175 285 147 q 312 120 312 78 q 312 36 285 8 q 258 -19 216 -19 q 173 -19 146 8 q 119 35 119 78 z m 156 230 l 188 424 q 195 423 202 423 q 210 423 224 423 q 295 423 332 447 q 368 471 368 517 q 368 545 347 564 q 326 583 294 583 q 264 583 243 566 q 222 549 216 520 l 52 520 q 64 619 131 675 q 198 732 303 732 q 405 732 471 673 q 536 615 536 523 q 536 438 483 381 q 429 325 347 325 l 334 325 l 319 230 z"},"<":{"x_min":0,"x_max":833,"ha":833,"o":"m 704 593 l 704 469 l 287 298 l 704 128 l 704 4 l 129 241 l 129 355 z"},"'":{"x_min":0,"x_max":181,"ha":181,"o":"m 37 702 l 144 702 l 144 428 l 37 428 z"},"=":{"x_min":0,"x_max":833,"ha":833,"o":"m 124 245 l 709 245 l 709 133 l 124 133 z m 124 464 l 709 464 l 709 351 l 124 351 z"},"a":{"x_min":0,"x_max":667,"ha":667,"o":"m 198 229 q 198 182 227 153 q 256 124 303 124 q 355 124 389 164 q 424 205 424 265 q 424 311 395 340 q 366 368 320 368 q 267 368 233 329 q 198 289 198 229 z m 390 66 q 354 24 311 3 q 267 -18 217 -18 q 132 -18 77 46 q 23 110 23 212 q 23 340 97 424 q 170 509 281 509 q 332 509 373 488 q 413 466 446 422 l 457 493 l 622 493 l 544 0 l 382 0 z"},"L":{"x_min":0,"x_max":512,"ha":512,"o":"m 20 0 l 133 715 l 325 715 l 239 171 l 475 171 l 448 0 z"},"3":{"x_min":0,"x_max":611,"ha":611,"o":"m 30 231 l 196 231 q 200 180 224 152 q 249 124 291 124 q 328 124 352 148 q 376 172 376 209 q 376 250 349 273 q 321 297 271 297 l 264 297 l 284 423 q 289 422 295 421 q 301 421 312 421 q 358 421 383 444 q 409 467 409 508 q 409 542 386 563 q 363 584 328 584 q 296 584 275 565 q 254 547 247 512 l 87 512 q 100 609 170 666 q 240 722 349 722 q 449 722 511 670 q 573 619 573 535 q 573 471 533 426 q 494 380 421 361 q 481 347 513 307 q 545 267 545 206 q 545 106 475 44 q 405 -18 291 -18 q 169 -18 100 48 q 30 115 30 231 z"},";":{"x_min":0,"x_max":359,"ha":359,"o":"m -112 -142 l 65 157 l 273 157 l 38 -142 z m 86 381 q 86 421 115 450 q 144 479 184 479 q 226 479 254 451 q 283 422 283 381 q 283 339 255 311 q 226 282 185 282 q 145 282 115 312 q 86 341 86 381 z"},"J":{"x_min":0,"x_max":475,"ha":475,"o":"m 43 190 q 67 164 84 153 q 102 142 120 142 q 153 142 170 170 q 187 197 206 317 l 269 715 l 461 715 l 387 248 q 386 244 385 235 q 363 93 313 41 q 281 8 239 -8 q 196 -25 144 -25 q 81 -25 32 -4 q -17 16 -51 57 z"},"V":{"x_min":0,"x_max":678,"ha":678,"o":"m 200 0 l 10 715 l 213 715 l 301 306 q 304 291 307 271 q 309 251 311 225 q 320 252 329 274 q 337 295 343 308 l 532 715 l 745 715 l 366 0 z"},"\"":{"x_min":0,"x_max":348,"ha":348,"o":"m 203 702 l 312 702 l 312 428 l 203 428 z m 37 702 l 144 702 l 144 428 l 37 428 z"},"7":{"x_min":0,"x_max":611,"ha":611,"o":"m 35 0 l 382 545 l 80 545 l 106 708 l 664 708 l 659 687 l 237 0 z"},"S":{"x_min":0,"x_max":574,"ha":574,"o":"m 84 246 q 129 198 170 176 q 210 154 254 154 q 290 154 312 171 q 333 189 333 218 q 333 257 246 302 q 238 307 233 309 q 148 353 117 394 q 86 434 86 492 q 86 598 157 666 q 229 733 342 733 q 401 733 456 712 q 511 691 560 650 l 478 509 q 439 542 408 558 q 376 574 349 574 q 320 574 300 557 q 281 541 281 516 q 281 486 354 448 q 380 435 394 427 q 469 385 499 342 q 528 299 528 234 q 528 119 448 51 q 369 -18 232 -18 q 160 -18 98 12 q 35 43 -15 103 z"},"}":{"x_min":0,"x_max":500,"ha":500,"o":"m 65 721 q 72 721 85 722 q 98 722 104 722 q 157 722 192 716 q 227 710 251 698 q 279 683 291 655 q 303 626 303 560 l 303 436 q 303 371 327 344 q 351 317 409 317 q 412 317 418 317 q 424 318 427 318 l 427 200 q 424 200 418 201 q 412 201 409 201 q 351 201 327 174 q 303 147 303 83 l 303 -42 q 303 -109 291 -137 q 279 -165 251 -180 q 229 -192 196 -198 q 162 -203 109 -203 q 102 -203 87 -203 q 73 -202 65 -202 l 65 -84 q 69 -84 76 -84 q 83 -85 86 -85 q 133 -85 150 -68 q 166 -51 166 3 l 166 121 q 166 189 188 218 q 211 247 269 259 q 210 271 188 300 q 166 329 166 398 l 166 515 q 166 569 150 587 q 133 604 88 604 q 84 604 77 604 q 69 603 65 603 z"},"Z":{"x_min":0,"x_max":650,"ha":650,"o":"m -55 0 l 356 558 l 81 558 l 103 715 l 693 715 l 291 170 l 607 170 l 581 0 z"},"x":{"x_min":0,"x_max":551,"ha":551,"o":"m -71 0 l 164 258 l 21 493 l 208 493 l 250 413 q 256 401 262 388 q 267 375 272 359 q 279 374 288 388 q 297 402 307 415 l 366 493 l 564 493 l 369 256 l 512 0 l 317 0 l 271 91 q 262 108 257 121 q 251 133 248 146 q 238 127 230 114 q 222 100 213 89 l 145 0 z"},")":{"x_min":0,"x_max":359,"ha":359,"o":"m 79 683 l 193 739 q 246 646 272 552 q 298 458 298 361 q 298 189 234 44 q 170 -102 46 -214 l -50 -126 q 52 -33 105 93 q 158 220 158 373 q 158 456 139 533 q 119 609 79 683 z"},"&":{"x_min":0,"x_max":769,"ha":769,"o":"m 359 449 l 404 476 q 428 490 441 509 q 453 527 453 550 q 453 573 436 588 q 419 603 394 603 q 364 603 344 584 q 324 565 324 537 q 324 525 327 514 q 329 503 334 495 z m 398 164 l 284 299 q 242 282 221 259 q 201 236 201 204 q 201 168 224 147 q 248 125 286 125 q 310 125 338 135 q 365 144 398 164 z m 536 0 l 488 56 q 433 18 377 0 q 321 -19 262 -19 q 156 -19 91 40 q 26 99 26 195 q 26 264 70 313 q 115 363 221 410 q 201 442 191 474 q 181 507 181 540 q 181 617 240 668 q 300 719 391 719 q 482 719 538 671 q 594 623 594 545 q 594 486 558 443 q 522 400 431 354 l 519 249 l 561 280 q 570 287 589 307 q 607 328 629 355 l 732 245 q 704 213 673 187 q 643 160 611 139 l 728 0 z"},"_":{"x_min":0,"x_max":500,"ha":500,"o":"m 0 -119 l 500 -119 l 500 -236 l 0 -236 z"},"v":{"x_min":0,"x_max":584,"ha":584,"o":"m 153 0 l -16 493 l 163 493 l 232 249 q 237 232 240 212 q 244 191 245 168 q 258 200 268 221 q 278 242 284 252 l 419 493 l 609 493 l 304 0 z"},"O":{"x_min":0,"x_max":861,"ha":861,"o":"m 447 556 q 359 556 300 493 q 241 430 241 337 q 241 254 288 205 q 335 156 414 156 q 500 156 560 221 q 620 286 620 380 q 620 457 571 507 q 522 556 447 556 z m 403 -19 q 326 -19 263 2 q 201 23 152 65 q 101 110 72 176 q 43 242 43 316 q 43 396 68 466 q 92 535 141 592 q 198 659 281 695 q 363 731 459 731 q 620 731 719 638 q 819 545 819 397 q 819 317 794 247 q 769 177 720 121 q 661 52 581 17 q 500 -19 403 -19 z"},"(":{"x_min":0,"x_max":359,"ha":359,"o":"m 256 -158 l 142 -214 q 89 -120 62 -26 q 36 67 36 164 q 36 335 100 480 q 164 626 289 739 l 384 651 q 282 559 229 434 q 176 309 176 160 q 176 73 196 -5 q 215 -83 256 -158 z"},"C":{"x_min":0,"x_max":653,"ha":653,"o":"m 664 681 l 632 484 q 591 520 542 538 q 494 556 442 556 q 353 556 295 494 q 238 432 238 336 q 238 249 286 201 q 334 154 423 154 q 461 154 501 163 q 542 172 586 191 l 556 6 q 520 -6 475 -12 q 431 -18 380 -18 q 227 -18 135 77 q 43 171 43 328 q 43 404 67 472 q 90 541 136 597 q 190 663 270 697 q 351 732 450 732 q 507 732 560 719 q 613 707 664 681 z"},"W":{"x_min":0,"x_max":1000,"ha":1000,"o":"m 158 0 l 27 715 l 217 715 l 272 329 q 277 294 279 269 q 281 243 282 220 q 291 255 299 284 q 308 313 314 333 l 441 715 l 617 715 l 669 329 q 674 295 676 270 q 678 244 679 220 q 683 240 691 265 q 698 290 714 333 l 858 715 l 1056 715 l 757 0 l 561 0 l 512 333 q 507 366 505 392 q 502 418 502 442 q 494 410 486 381 q 478 353 470 329 l 362 0 z"},"A":{"x_min":0,"x_max":711,"ha":711,"o":"m -57 0 l 301 715 l 540 715 l 692 0 l 498 0 l 469 135 l 219 135 l 151 0 z m 291 294 l 442 294 l 409 461 q 404 486 402 505 q 399 525 399 542 q 389 513 380 490 q 372 468 367 458 z"},"f":{"x_min":0,"x_max":370,"ha":370,"o":"m 28 0 l 86 367 l 4 367 l 24 493 l 106 493 l 114 543 q 115 549 117 562 q 132 662 161 698 q 188 732 230 750 q 272 769 323 769 q 347 769 372 764 q 398 759 426 748 l 404 607 q 390 614 376 617 q 362 621 350 621 q 321 621 307 603 q 292 585 285 537 l 278 493 l 386 493 l 366 367 l 259 367 l 201 0 z"},"Q":{"x_min":0,"x_max":861,"ha":861,"o":"m 325 294 l 529 294 l 574 230 q 599 260 611 298 q 624 336 624 379 q 624 457 575 507 q 525 557 449 557 q 359 557 298 493 q 238 429 238 334 q 238 250 284 200 q 331 150 407 150 q 412 150 422 151 q 432 153 436 153 z m 800 -74 l 602 -74 l 541 6 q 506 -5 468 -11 q 429 -17 388 -17 q 232 -17 136 76 q 40 169 40 318 q 40 397 65 466 q 89 535 138 592 q 195 659 278 696 q 360 732 456 732 q 617 732 716 640 q 816 547 816 399 q 816 304 782 224 q 748 145 681 85 z"},"w":{"x_min":0,"x_max":855,"ha":855,"o":"m 134 0 l -12 493 l 161 493 l 211 269 q 215 251 219 230 q 222 210 225 184 q 236 219 258 265 q 260 269 261 271 l 369 493 l 488 493 l 541 269 q 547 243 551 222 q 554 202 556 184 q 565 215 589 265 l 592 271 l 702 493 l 881 493 l 614 0 l 480 0 l 425 228 q 421 246 417 266 q 414 287 411 309 q 406 294 398 275 q 390 256 375 225 l 266 0 z"},"-":{"x_min":0,"x_max":456,"ha":456,"o":"m 33 170 l 57 321 l 388 321 l 364 170 z"},"E":{"x_min":0,"x_max":545,"ha":545,"o":"m 236 159 l 457 159 l 432 0 l 20 0 l 133 715 l 545 715 l 519 550 l 298 550 l 280 433 l 485 433 l 461 278 l 255 278 z"},"s":{"x_min":0,"x_max":459,"ha":459,"o":"m 418 457 l 367 346 q 333 370 305 381 q 277 392 249 392 q 226 392 210 381 q 195 371 195 355 q 195 333 246 313 q 268 305 281 299 q 352 268 380 235 q 408 202 408 153 q 408 75 348 28 q 288 -19 188 -19 q 131 -19 80 -4 q 28 11 -20 41 l 38 159 q 88 128 122 116 q 155 103 185 103 q 211 103 227 115 q 242 126 242 144 q 242 172 170 201 q 149 210 137 215 q 80 240 56 270 q 32 300 32 344 q 32 415 91 462 q 150 509 243 509 q 290 509 334 496 q 379 482 418 457 z"},">":{"x_min":0,"x_max":833,"ha":833,"o":"m 129 593 l 704 355 l 704 241 l 129 4 l 129 128 l 546 298 l 129 469 z"},"l":{"x_min":0,"x_max":312,"ha":312,"o":"m 133 757 l 308 757 l 187 0 l 12 0 z"},"8":{"x_min":0,"x_max":611,"ha":611,"o":"m 195 218 q 195 177 219 151 q 243 125 281 125 q 321 125 348 152 q 375 178 375 219 q 375 259 350 285 q 325 311 286 311 q 249 311 222 283 q 195 255 195 218 z m 332 603 q 299 603 276 578 q 253 553 253 516 q 253 481 275 460 q 297 439 332 439 q 367 439 389 462 q 412 485 412 521 q 412 556 389 580 q 366 603 332 603 z m 192 387 q 149 411 126 447 q 104 482 104 528 q 104 614 168 668 q 232 722 335 722 q 437 722 501 669 q 565 616 565 533 q 565 477 533 437 q 502 397 440 376 q 494 358 523 315 q 552 271 552 209 q 552 108 475 44 q 397 -19 273 -19 q 163 -19 93 40 q 23 99 23 192 q 23 270 67 321 q 112 372 192 387 z"},"\\":{"x_min":0,"x_max":486,"ha":486,"o":"m 408 -93 l 304 -93 l 76 731 l 180 731 z"},"e":{"x_min":0,"x_max":597,"ha":597,"o":"m 390 305 q 388 345 363 369 q 339 392 299 392 q 263 392 234 369 q 206 346 191 305 z m 179 205 l 179 194 q 179 147 203 123 q 227 98 273 98 q 305 98 334 112 q 362 125 395 155 l 489 60 q 447 20 392 0 q 337 -20 269 -20 q 148 -20 82 44 q 15 108 15 224 q 15 351 94 430 q 174 509 300 509 q 414 509 484 439 q 553 369 553 254 q 553 244 550 217 q 549 208 549 205 z"},"b":{"x_min":0,"x_max":667,"ha":667,"o":"m 433 265 q 433 312 404 341 q 375 370 328 370 q 276 370 241 330 q 207 291 207 230 q 207 184 236 156 q 265 127 311 127 q 364 127 399 166 q 433 205 433 265 z m 257 499 q 255 484 250 466 q 245 448 237 425 q 279 466 323 487 q 367 507 413 507 q 499 507 553 443 q 608 379 608 278 q 608 150 534 65 q 461 -19 350 -19 q 301 -19 261 2 q 220 23 182 68 l 171 0 l 9 0 l 129 757 l 298 757 z"},"%":{"x_min":0,"x_max":821,"ha":821,"o":"m 599 61 q 627 61 648 108 q 669 155 669 221 q 669 252 661 265 q 653 279 635 279 q 606 279 585 232 q 564 185 564 117 q 564 87 572 74 q 581 61 599 61 z m 788 198 q 788 104 734 42 q 679 -20 596 -20 q 529 -20 488 21 q 447 62 447 128 q 447 227 500 288 q 554 350 639 350 q 708 350 748 309 q 788 268 788 198 z m 187 433 q 215 433 236 480 q 257 527 257 593 q 257 624 249 637 q 241 650 223 650 q 194 650 173 603 q 152 556 152 489 q 152 459 160 446 q 168 433 187 433 z m 373 570 q 373 476 319 415 q 266 353 184 353 q 113 353 72 393 q 31 434 31 504 q 31 602 84 663 q 138 723 223 723 q 292 723 332 682 q 373 640 373 570 z m 144 -19 l 586 722 l 678 722 l 234 -19 z"},"m":{"x_min":0,"x_max":913,"ha":913,"o":"m 5 0 l 83 493 l 236 493 l 225 411 q 261 461 300 485 q 340 509 387 509 q 442 509 477 486 q 512 464 535 413 q 573 463 612 486 q 650 509 697 509 q 771 509 811 468 q 850 426 850 347 q 850 327 848 304 q 846 282 842 259 l 801 0 l 638 0 l 679 261 q 680 267 681 273 q 681 280 681 292 q 681 330 665 348 q 649 367 617 367 q 575 367 552 335 q 528 304 517 229 l 483 0 l 320 0 l 361 261 q 361 263 362 267 q 365 291 365 300 q 365 333 349 350 q 333 367 302 367 q 260 367 237 337 q 215 307 203 229 l 167 0 z"},"#":{"x_min":0,"x_max":769,"ha":769,"o":"m 345 411 l 305 298 l 425 298 l 465 411 z m 334 716 l 456 716 l 388 524 l 503 524 l 572 716 l 694 716 l 626 524 l 758 524 l 716 411 l 585 411 l 546 299 l 681 299 l 640 186 l 506 186 l 437 -6 l 315 -6 l 383 186 l 268 186 l 199 -6 l 77 -6 l 145 186 l 11 186 l 53 299 l 185 299 l 225 411 l 87 411 l 129 524 l 265 524 z"},",":{"x_min":0,"x_max":306,"ha":306,"o":"m -118 -142 l 59 157 l 267 157 l 32 -142 z"},"n":{"x_min":0,"x_max":630,"ha":630,"o":"m 5 0 l 83 493 l 250 493 l 238 416 q 278 465 318 487 q 358 509 406 509 q 482 509 525 468 q 567 426 567 352 q 567 327 558 268 q 558 262 557 259 l 516 0 l 342 0 l 383 261 q 385 272 386 283 q 387 294 387 302 q 387 334 370 351 q 353 367 320 367 q 274 367 249 334 q 223 302 212 230 l 177 0 z"},"h":{"x_min":0,"x_max":630,"ha":630,"o":"m 5 0 l 126 757 l 297 757 l 253 491 q 250 472 246 453 q 243 434 238 416 q 278 465 318 487 q 358 509 406 509 q 482 509 525 468 q 567 426 567 352 q 567 327 558 268 q 558 262 557 259 l 516 0 l 342 0 l 383 261 q 385 272 386 283 q 387 294 387 302 q 387 334 370 351 q 353 367 320 367 q 274 367 249 334 q 223 302 212 230 l 177 0 z"},"z":{"x_min":0,"x_max":536,"ha":536,"o":"m -52 0 l 245 370 l 42 370 l 61 493 l 537 493 l 252 140 l 478 140 l 456 0 z"},"B":{"x_min":0,"x_max":625,"ha":625,"o":"m 441 372 q 509 359 545 318 q 581 276 581 210 q 581 155 557 109 q 533 62 490 36 q 459 17 412 8 q 365 0 255 0 l 205 0 l 19 0 l 133 715 l 295 715 q 388 715 428 710 q 468 706 495 695 q 540 677 566 637 q 592 596 592 545 q 592 474 552 428 q 511 382 441 372 z m 227 140 l 250 140 q 337 140 365 161 q 394 182 394 235 q 394 274 370 291 q 345 307 287 307 l 253 307 z m 274 438 l 290 438 q 359 438 385 456 q 411 475 411 518 q 411 549 390 564 q 369 578 322 578 l 295 578 z"},"K":{"x_min":0,"x_max":708,"ha":708,"o":"m 20 0 l 133 715 l 324 715 l 276 416 l 548 715 l 795 715 l 443 362 l 686 0 l 460 0 l 260 315 l 210 0 z"},"R":{"x_min":0,"x_max":662,"ha":662,"o":"m 210 0 l 20 0 l 133 715 l 323 715 q 409 715 451 709 q 493 703 524 688 q 578 663 606 616 q 634 570 634 506 q 634 417 581 357 q 528 297 435 282 l 609 0 l 391 0 l 253 273 z m 271 388 l 331 388 q 388 388 418 414 q 448 440 448 489 q 448 535 420 555 q 392 576 329 576 l 301 576 z"},"T":{"x_min":0,"x_max":546,"ha":546,"o":"m 119 0 l 206 549 l 46 549 l 73 715 l 578 715 l 551 549 l 398 549 l 311 0 z"},"P":{"x_min":0,"x_max":644,"ha":644,"o":"m 274 401 l 292 401 q 385 401 417 420 q 450 440 450 487 q 450 526 422 545 q 394 563 334 563 l 300 563 z m 20 0 l 134 715 l 330 715 q 412 715 453 708 q 494 702 524 686 q 579 658 606 610 q 633 562 633 494 q 633 427 604 370 q 575 313 525 282 q 496 264 456 257 q 416 249 330 249 l 301 249 l 250 249 l 210 0 z"},"|":{"x_min":0,"x_max":500,"ha":500,"o":"m 192 764 l 309 764 l 309 -236 l 192 -236 z"},"t":{"x_min":0,"x_max":344,"ha":344,"o":"m 28 0 l 86 367 l 4 367 l 24 493 l 106 493 l 128 636 l 302 636 l 279 493 l 367 493 l 347 367 l 259 367 l 201 0 z"},"M":{"x_min":0,"x_max":931,"ha":931,"o":"m -22 0 l 197 715 l 409 715 l 457 438 q 461 413 465 385 q 469 356 472 326 q 478 348 487 372 q 496 397 512 434 l 640 715 l 851 715 l 868 0 l 692 0 l 690 341 q 690 370 691 398 q 692 426 694 454 q 683 418 657 364 q 652 353 650 348 l 487 0 l 371 0 l 304 347 q 299 374 295 400 q 291 427 287 454 q 282 422 276 394 q 270 365 263 341 l 164 0 z"},"g":{"x_min":0,"x_max":660,"ha":660,"o":"m 198 229 q 198 182 226 152 q 254 123 300 123 q 353 123 388 164 q 424 204 424 265 q 424 312 395 340 q 367 368 320 368 q 267 368 233 329 q 198 289 198 229 z m 561 116 q 559 104 556 84 q 533 -72 493 -120 q 453 -167 390 -193 q 328 -218 249 -218 q 135 -218 70 -172 q 5 -125 -8 -36 l 174 -36 q 177 -66 198 -82 q 218 -98 254 -98 q 309 -98 340 -66 q 371 -34 380 31 l 386 73 q 353 33 311 12 q 270 -8 219 -8 q 132 -8 78 55 q 23 117 23 218 q 23 343 97 426 q 170 509 281 509 q 331 509 372 488 q 412 467 446 424 l 457 493 l 620 493 z"},"j":{"x_min":0,"x_max":312,"ha":312,"o":"m 104 640 q 104 678 131 706 q 158 733 197 733 q 237 733 264 707 q 291 680 291 640 q 291 601 264 573 q 236 546 197 546 q 158 546 131 573 q 104 601 104 640 z m 152 -218 l -23 -218 l 91 493 l 266 493 z"},"i":{"x_min":0,"x_max":312,"ha":312,"o":"m 104 640 q 104 678 131 706 q 158 733 197 733 q 237 733 264 707 q 291 680 291 640 q 291 601 264 573 q 236 546 197 546 q 158 546 131 573 q 104 601 104 640 z m 13 0 l 91 493 l 266 493 l 188 0 z"},"y":{"x_min":0,"x_max":525,"ha":525,"o":"m 128 25 l -12 493 l 168 493 l 211 280 q 212 276 214 268 q 223 225 224 194 q 229 213 238 235 q 247 257 259 282 l 361 493 l 548 493 l 165 -218 l -17 -218 z"},"@":{"x_min":0,"x_max":1000,"ha":1000,"o":"m 567 128 q 540 88 505 69 q 471 51 423 51 q 343 51 302 94 q 261 136 261 219 q 261 337 330 417 q 399 496 501 496 q 539 496 566 481 q 594 466 613 436 l 638 481 l 739 481 l 664 183 q 664 182 664 180 q 662 171 662 167 q 662 152 670 145 q 678 138 693 138 q 760 138 810 208 q 861 278 861 372 q 861 489 773 562 q 686 636 545 636 q 473 636 411 618 q 350 601 299 565 q 223 511 182 431 q 141 351 141 257 q 141 109 240 22 q 339 -66 506 -66 q 586 -66 660 -43 q 734 -20 797 25 l 844 -41 q 768 -98 684 -126 q 599 -155 506 -155 q 412 -155 333 -131 q 253 -107 192 -60 q 115 0 78 77 q 40 155 40 254 q 40 336 66 410 q 92 484 142 546 q 214 635 318 682 q 421 728 546 728 q 629 728 702 706 q 775 683 829 641 q 896 589 928 522 q 961 456 961 373 q 961 292 929 223 q 897 155 836 106 q 802 79 761 64 q 719 50 675 50 q 623 50 596 69 q 569 89 567 128 z m 585 340 q 581 377 561 396 q 541 416 507 416 q 457 416 418 357 q 380 297 380 217 q 380 176 397 154 q 414 132 445 132 q 486 132 517 161 q 548 189 560 238 z"},".":{"x_min":0,"x_max":306,"ha":306,"o":"m 18 81 q 18 122 47 150 q 75 179 116 179 q 158 179 186 151 q 215 123 215 81 q 215 39 187 10 q 158 -18 117 -18 q 76 -18 47 11 q 18 41 18 81 z"},"p":{"x_min":0,"x_max":667,"ha":667,"o":"m 433 258 q 433 305 404 334 q 375 363 328 363 q 276 363 241 323 q 207 283 207 222 q 207 176 236 148 q 265 120 311 120 q 364 120 399 159 q 433 198 433 258 z m -21 -218 l 92 493 l 256 493 l 245 425 q 282 467 325 488 q 369 509 418 509 q 503 509 558 445 q 612 381 612 280 q 612 152 538 67 q 465 -17 354 -17 q 304 -17 264 4 q 224 25 188 70 q 188 46 187 27 q 186 7 183 -8 l 151 -218 z"},"X":{"x_min":0,"x_max":749,"ha":749,"o":"m -52 0 l 265 386 l 74 715 l 291 715 l 366 574 q 373 561 380 547 q 386 533 392 519 q 398 533 407 546 q 416 560 427 575 l 533 715 l 767 715 l 491 375 l 714 0 l 490 0 l 387 191 q 381 202 374 216 q 368 230 361 246 q 352 227 343 213 q 335 200 327 189 l 185 0 z"},"*":{"x_min":0,"x_max":463,"ha":463,"o":"m 300 586 l 412 644 l 445 549 l 321 525 l 427 456 l 362 381 l 278 477 l 271 350 l 174 369 l 214 489 l 102 431 l 69 525 l 194 550 l 87 619 l 153 694 l 235 599 l 242 725 l 340 706 z"},"Y":{"x_min":0,"x_max":583,"ha":583,"o":"m 131 0 l 181 319 l -20 715 l 193 715 l 271 532 q 277 518 284 500 q 291 482 297 462 q 310 493 318 510 q 326 527 331 534 l 458 715 l 678 715 l 373 317 l 323 0 z"},"c":{"x_min":0,"x_max":500,"ha":500,"o":"m 434 313 q 407 342 380 356 q 352 370 322 370 q 271 370 236 330 q 201 291 201 232 q 201 183 228 155 q 255 126 301 126 q 330 126 357 136 q 384 146 411 167 l 385 5 q 350 -7 318 -13 q 285 -19 254 -19 q 149 -19 85 49 q 20 116 20 225 q 20 353 100 432 q 180 511 310 511 q 352 511 389 499 q 427 487 458 464 z"},"!":{"x_min":0,"x_max":359,"ha":359,"o":"m 39 81 q 39 121 68 150 q 97 179 138 179 q 180 179 208 151 q 237 123 237 81 q 237 39 208 10 q 179 -18 138 -18 q 97 -18 68 11 q 39 41 39 81 z m 147 731 l 329 731 l 251 237 l 69 237 z"},"/":{"x_min":0,"x_max":486,"ha":486,"o":"m 0 -93 l 382 731 l 486 731 l 104 -93 z"},"[":{"x_min":0,"x_max":359,"ha":359,"o":"m 137 731 l 399 731 l 381 613 l 265 613 l 153 -88 l 269 -88 l 251 -206 l -12 -206 z"},"6":{"x_min":0,"x_max":611,"ha":611,"o":"m 318 465 q 329 467 340 468 q 352 469 364 469 q 455 469 510 410 q 565 351 565 253 q 565 135 489 59 q 413 -17 294 -17 q 172 -17 101 52 q 29 120 29 236 q 29 311 69 388 q 110 466 248 624 l 324 711 l 537 711 z m 189 237 q 189 193 221 161 q 252 129 297 129 q 341 129 373 160 q 404 191 404 237 q 404 283 373 313 q 342 344 297 344 q 252 344 221 312 q 189 281 189 237 z"},"r":{"x_min":0,"x_max":417,"ha":417,"o":"m 5 0 l 83 493 l 250 493 l 238 409 q 261 456 299 480 q 338 505 389 505 q 395 505 401 504 q 408 503 423 501 l 388 346 q 371 350 357 352 q 344 354 331 354 q 281 354 252 323 q 223 291 212 225 l 177 0 z"},"2":{"x_min":0,"x_max":611,"ha":611,"o":"m 324 151 q 350 153 370 154 q 390 155 397 155 l 549 155 l 524 0 l 2 0 l 300 341 q 353 402 373 438 q 393 473 393 502 q 393 535 372 555 q 352 575 317 575 q 274 575 249 545 q 225 515 224 462 l 55 462 q 64 585 135 654 q 207 722 326 722 q 437 722 504 662 q 572 603 572 507 q 572 440 537 378 q 502 316 418 238 z"},"{":{"x_min":0,"x_max":500,"ha":500,"o":"m 436 721 l 436 603 q 433 603 426 604 q 419 604 416 604 q 368 604 352 587 q 335 569 335 515 l 335 398 q 335 330 312 300 q 290 271 232 259 q 291 247 313 219 q 335 190 335 121 l 335 3 q 335 -51 351 -68 q 368 -85 415 -85 q 418 -85 426 -84 q 433 -84 436 -84 l 436 -202 q 429 -202 416 -203 q 402 -203 396 -203 q 343 -203 308 -197 q 273 -191 250 -179 q 221 -164 210 -136 q 198 -108 198 -42 l 198 83 q 198 148 174 175 q 150 201 92 201 q 90 201 83 201 q 77 200 74 200 l 74 318 q 77 318 83 317 q 89 317 92 317 q 149 317 174 344 q 198 371 198 436 l 198 560 q 198 626 210 655 q 222 683 250 698 q 273 710 309 716 q 344 722 397 722 q 403 722 416 722 q 429 721 436 721 z"},"9":{"x_min":0,"x_max":611,"ha":611,"o":"m 300 241 q 289 239 278 238 q 267 237 254 237 q 163 237 108 296 q 53 355 53 453 q 53 571 129 647 q 206 723 324 723 q 445 723 517 655 q 588 586 588 470 q 588 389 538 299 q 487 208 370 82 l 294 0 l 92 0 z m 428 469 q 428 513 397 545 q 365 577 321 577 q 276 577 245 546 q 214 515 214 469 q 214 423 245 393 q 276 362 321 362 q 366 362 397 394 q 428 425 428 469 z"}," ":{"x_min":0,"x_max":306,"ha":306,"o":""},"I":{"x_min":0,"x_max":354,"ha":354,"o":"m 23 0 l 136 715 l 331 715 l 218 0 z"},"H":{"x_min":0,"x_max":787,"ha":787,"o":"m 20 0 l 133 715 l 325 715 l 281 439 l 531 439 l 574 715 l 767 715 l 654 0 l 461 0 l 507 292 l 258 292 l 212 0 z"},"4":{"x_min":0,"x_max":611,"ha":611,"o":"m 327 299 l 368 519 q 372 541 384 588 l 386 596 q 375 576 361 556 q 347 535 332 516 l 161 299 z m 280 0 l 305 162 l -1 162 l 21 299 l 345 708 l 553 708 l 488 299 l 581 299 l 560 162 l 466 162 l 441 0 z"},"~":{"x_min":0,"x_max":833,"ha":833,"o":"m 747 400 l 747 276 q 698 242 652 226 q 607 209 563 209 q 541 209 520 213 q 498 216 479 223 q 473 225 460 229 q 336 273 274 273 q 233 273 188 255 q 144 236 87 196 l 87 320 q 142 355 188 373 q 235 390 276 390 q 307 390 338 384 q 369 378 420 362 q 428 359 445 354 q 523 326 566 326 q 607 326 651 344 q 694 361 747 400 z"},"D":{"x_min":0,"x_max":755,"ha":755,"o":"m 19 0 l 131 715 l 254 715 q 392 715 450 707 q 509 700 546 681 q 625 641 667 564 q 709 486 709 380 q 709 277 672 200 q 634 123 558 69 q 504 32 431 16 q 357 0 184 0 l 157 0 z m 236 159 q 256 158 265 157 q 275 157 283 157 q 398 157 458 215 q 517 272 517 384 q 517 475 474 516 q 430 557 333 557 l 297 557 z"},"^":{"x_min":0,"x_max":1000,"ha":1000,"o":"m 429 714 l 570 714 l 797 439 l 668 439 l 500 606 l 331 439 l 202 439 z"},"0":{"x_min":0,"x_max":611,"ha":611,"o":"m 266 132 q 292 132 312 154 q 333 177 350 222 q 372 283 385 355 q 399 427 399 486 q 399 528 385 549 q 370 571 342 571 q 316 571 296 549 q 276 527 258 480 q 237 423 224 350 q 211 276 211 215 q 211 175 225 153 q 239 132 266 132 z m 256 -19 q 151 -19 92 55 q 32 129 32 260 q 32 351 56 438 q 80 525 122 589 q 165 654 224 688 q 284 722 354 722 q 458 722 518 647 q 577 573 577 440 q 577 349 554 264 q 531 180 489 116 q 444 48 386 15 q 328 -19 256 -19 z"},"F":{"x_min":0,"x_max":541,"ha":541,"o":"m 20 0 l 133 715 l 546 715 l 520 551 l 298 551 l 279 433 l 487 433 l 462 279 l 255 279 l 211 0 z"},"`":{"x_min":0,"x_max":500,"ha":500,"o":"m 160 735 l 290 735 l 365 563 l 296 563 z"},"k":{"x_min":0,"x_max":602,"ha":602,"o":"m 230 284 l 417 493 l 636 493 l 395 253 l 556 0 l 348 0 l 223 233 l 186 0 l 13 0 l 132 757 l 306 757 z"},"u":{"x_min":0,"x_max":611,"ha":611,"o":"m 74 493 l 247 493 l 215 289 q 209 249 206 221 q 202 194 202 186 q 202 151 219 132 q 236 114 268 114 q 343 114 370 284 q 371 293 372 298 l 403 493 l 576 493 l 541 270 l 540 260 q 514 101 459 48 q 424 15 374 -2 q 324 -19 261 -19 q 152 -19 90 30 q 27 80 27 164 q 27 184 30 213 q 34 243 44 304 z"},"]":{"x_min":0,"x_max":359,"ha":359,"o":"m 192 -206 l -70 -206 l -52 -88 l 64 -88 l 175 613 l 59 613 l 78 731 l 341 731 z"},"U":{"x_min":0,"x_max":747,"ha":747,"o":"m 124 715 l 316 715 l 259 356 q 252 315 250 292 q 247 269 247 251 q 247 205 273 179 q 299 154 345 154 q 456 154 502 448 l 503 455 l 544 715 l 736 715 l 672 309 l 672 309 q 651 177 619 122 q 579 52 506 16 q 433 -21 334 -21 q 206 -21 129 40 q 52 102 52 203 q 52 233 58 284 q 63 335 75 410 z"},"o":{"x_min":0,"x_max":613,"ha":613,"o":"m 302 368 q 251 368 216 325 q 180 283 180 221 q 180 176 206 149 q 232 122 275 122 q 329 122 364 163 q 399 205 399 269 q 399 315 373 342 q 347 368 302 368 z m 13 223 q 13 349 95 429 q 177 510 305 510 q 423 510 494 443 q 565 376 565 264 q 565 140 482 60 q 399 -20 268 -20 q 152 -20 83 46 q 13 113 13 223 z"},"N":{"x_min":0,"x_max":817,"ha":817,"o":"m 20 0 l 133 715 l 351 715 l 502 362 q 504 357 508 347 q 533 289 543 245 l 543 263 q 543 283 545 306 q 547 330 552 364 l 607 715 l 798 715 l 685 0 l 475 0 l 315 364 q 297 403 288 429 q 279 455 273 481 l 273 461 q 273 441 271 420 q 270 398 265 362 l 211 0 z"},"+":{"x_min":0,"x_max":833,"ha":833,"o":"m 359 596 l 475 596 l 475 355 l 709 355 l 709 242 l 475 242 l 475 0 l 359 0 l 359 242 l 124 242 l 124 355 l 359 355 z"},"G":{"x_min":0,"x_max":815,"ha":815,"o":"m 431 389 l 790 389 q 786 198 685 89 q 584 -19 412 -19 q 243 -19 143 73 q 43 166 43 321 q 43 406 74 483 q 104 560 162 618 q 217 673 292 702 q 367 731 454 731 q 557 731 633 690 q 710 649 766 564 l 614 460 q 587 508 547 532 q 507 556 454 556 q 364 556 306 491 q 247 426 247 327 q 247 245 293 196 q 340 146 416 146 q 444 146 469 153 q 495 159 516 172 q 535 184 549 201 q 562 219 571 243 l 408 243 z"},"q":{"x_min":0,"x_max":667,"ha":667,"o":"m 198 228 q 198 181 227 152 q 256 123 303 123 q 355 123 389 163 q 424 203 424 263 q 424 309 395 338 q 366 366 320 366 q 267 366 232 327 q 198 288 198 228 z m 369 -10 q 371 5 376 24 q 382 42 390 65 q 355 23 312 2 q 268 -19 217 -19 q 132 -19 77 45 q 23 109 23 210 q 23 338 96 423 q 170 507 281 507 q 331 507 372 485 q 413 464 447 420 l 457 493 l 622 493 l 509 -218 l 338 -218 z"},"d":{"x_min":0,"x_max":667,"ha":667,"o":"m 202 232 q 202 185 231 156 q 260 127 307 127 q 359 127 394 167 q 428 208 428 268 q 428 314 399 343 q 370 371 324 371 q 271 371 237 332 q 202 292 202 232 z m 664 757 l 545 0 l 381 0 l 391 64 q 354 22 311 1 q 267 -20 217 -20 q 132 -20 77 44 q 23 108 23 210 q 23 338 96 422 q 170 506 281 506 q 331 506 371 485 q 411 464 447 420 l 447 434 q 447 449 448 465 q 450 480 452 497 l 493 757 z"},"1":{"x_min":0,"x_max":611,"ha":611,"o":"m 174 0 l 263 557 l 156 557 l 199 708 l 468 708 l 356 0 z"},"5":{"x_min":0,"x_max":611,"ha":611,"o":"m 56 212 q 109 169 155 149 q 201 129 246 129 q 305 129 338 162 q 371 195 371 254 q 371 309 332 340 q 292 371 222 371 q 190 371 157 364 q 124 357 90 344 l 185 708 l 569 708 l 540 560 l 292 560 l 266 459 q 287 463 305 466 q 322 468 338 468 q 431 468 489 409 q 546 351 546 256 q 546 132 467 57 q 387 -19 256 -19 q 183 -19 118 1 q 53 21 -4 61 z"}}}
